<svg width="1366" height="472" fill="none" xmlns="http://www.w3.org/2000/svg"><path d="M-72 199c69-19.5 220.7-50.7 275.5-19.5 54.8 31.2 116.833 153.667 141 211L827 377c-75.167-42.333-226.9-141.1-232.5-197.5-5.6-56.4 90-137.5 138.5-171l234 24c3.167 24.333 19.1 80.4 57.5 110 38.4 29.6 282-49.667 399-93L1438 446c-44.5-64.667-147.9-195.4-205.5-201-57.6-5.6-229.67 72.667-308.5 112.5" stroke="#fff" stroke-opacity=".15" stroke-width="15"/><circle cx="88" cy="125" r="9" fill="#fff" fill-opacity=".2"/><circle cx="480" cy="217" r="9" fill="#fff" fill-opacity=".2"/><circle cx="602" cy="352" r="9" fill="#fff" fill-opacity=".2"/><circle cx="845" cy="137" r="9" fill="#fff" fill-opacity=".2"/><circle cx="1193" cy="302" r="9" fill="#fff" fill-opacity=".2"/><circle cx="1366" cy="218" r="9" fill="#fff" fill-opacity=".2"/><circle cx="240" cy="352" r="17" stroke="#fff" stroke-opacity=".6" stroke-width="8"/><circle cx="11" cy="272" r="17" stroke="#fff" stroke-opacity=".6" stroke-width="8"/><circle cx="382" cy="102" r="17" stroke="#fff" stroke-opacity=".6" stroke-width="8"/><circle cx="877" cy="323" r="17" stroke="#fff" stroke-opacity=".6" stroke-width="8"/><circle cx="1267" cy="173" r="17" stroke="#fff" stroke-opacity=".6" stroke-width="8"/></svg>