<svg width="1366" height="472" viewBox="0 0 1366 472" fill="none" xmlns="http://www.w3.org/2000/svg">
<path d="M-72 199C-3 179.5 148.7 148.3 203.5 179.5C258.3 210.7 320.333 333.167 344.5 390.5L827 377C751.833 334.667 600.1 235.9 594.5 179.5C588.9 123.1 684.5 42 733 8.5L967 32.5C970.167 56.8333 986.1 112.9 1024.5 142.5C1062.9 172.1 1306.5 92.8333 1423.5 49.5L1438 446C1393.5 381.333 1290.1 250.6 1232.5 245C1174.9 239.4 1002.83 317.667 924 357.5" stroke="white" stroke-opacity="0.15" stroke-width="15"/>
<circle cx="88" cy="125" r="9" fill="white" fill-opacity="0.2"/>
<circle cx="480" cy="217" r="9" fill="white" fill-opacity="0.2"/>
<circle cx="602" cy="352" r="9" fill="white" fill-opacity="0.2"/>
<circle cx="845" cy="137" r="9" fill="white" fill-opacity="0.2"/>
<circle cx="1193" cy="302" r="9" fill="white" fill-opacity="0.2"/>
<circle cx="1366" cy="218" r="9" fill="white" fill-opacity="0.2"/>
<circle cx="240" cy="352" r="17" stroke="white" stroke-opacity="0.6" stroke-width="8"/>
<circle cx="11" cy="272" r="17" stroke="white" stroke-opacity="0.6" stroke-width="8"/>
<circle cx="382" cy="102" r="17" stroke="white" stroke-opacity="0.6" stroke-width="8"/>
<circle cx="877" cy="323" r="17" stroke="white" stroke-opacity="0.6" stroke-width="8"/>
<circle cx="1267" cy="173" r="17" stroke="white" stroke-opacity="0.6" stroke-width="8"/>
</svg>
